<?xml version="1.0" encoding="UTF-8"?>
<svg version="1.1" xmlns="http://www.w3.org/2000/svg" width="1024" height="1024">
<path d="M0 0 C337.92 0 675.84 0 1024 0 C1024 337.92 1024 675.84 1024 1024 C686.08 1024 348.16 1024 0 1024 C0 686.08 0 348.16 0 0 Z " fill="#FEFEFE" transform="translate(0,0)"/>
<path d="M0 0 C-0.52551096 6.14896196 -1.28377203 12.12768457 -2.6015625 18.15625 C-2.75857635 18.89289886 -2.91559021 19.62954773 -3.07736206 20.38851929 C-3.58609532 22.76062623 -4.10437786 25.13047576 -4.625 27.5 C-4.89244019 28.72520355 -4.89244019 28.72520355 -5.1652832 29.97515869 C-18.20065995 89.53079044 -39.40688552 152.46402252 -92.87548828 187.64697266 C-111.9419895 199.76004166 -132.7105541 206.84176047 -155 210 C-156.22976563 210.18691406 -157.45953125 210.37382812 -158.7265625 210.56640625 C-164.19768988 211.23238118 -169.6841849 211.14517098 -175.1875 211.125 C-176.25419922 211.12886719 -177.32089844 211.13273438 -178.41992188 211.13671875 C-179.96583008 211.13478516 -179.96583008 211.13478516 -181.54296875 211.1328125 C-182.47133545 211.13168457 -183.39970215 211.13055664 -184.35620117 211.12939453 C-186.99662338 211.00016526 -189.42578037 210.58628049 -192 210 C-191.41533787 206.57372181 -190.55293842 203.68909186 -189.06640625 200.55078125 C-188.67026123 199.71224609 -188.27411621 198.87371094 -187.8659668 198.00976562 C-187.43582275 197.11966797 -187.00567871 196.22957031 -186.5625 195.3125 C-186.11366455 194.37986328 -185.6648291 193.44722656 -185.20239258 192.48632812 C-163.84545359 148.58616078 -134.72818185 109.18271302 -100 75 C-108.23437922 79.83501625 -115.39084671 85.4475077 -122.54003906 91.71923828 C-123.84078126 92.86032416 -125.15026948 93.99142274 -126.4609375 95.12109375 C-129.19935934 97.48794534 -131.84776007 99.84375376 -134.375 102.4375 C-136 104 -136 104 -138 104 C-138 104.66 -138 105.32 -138 106 C-139.61720804 107.71469931 -141.2933039 109.37434813 -143 111 C-149.85600139 117.65168347 -156.07455485 124.50840184 -162 132 C-163.21042969 133.46759766 -163.21042969 133.46759766 -164.4453125 134.96484375 C-204.31994895 183.69798888 -228.19175182 244.71838344 -228.18530273 307.85498047 C-228.18748434 310.23293107 -228.20570623 312.61041235 -228.22460938 314.98828125 C-228.26152599 325.4628633 -227.46053983 335.62975345 -226 346 C-225.31301025 345.97905273 -224.62602051 345.95810547 -223.91821289 345.93652344 C-180.53670676 344.80029833 -137.86222434 354.89189223 -105.65283203 385.37402344 C-89.1235411 401.63474391 -77.58254809 424.04340894 -74 447 C-74 448.32 -74 449.64 -74 451 C-97.76 451 -121.52 451 -146 451 C-147.65 446.71 -149.3 442.42 -151 438 C-153.25502088 434.17451815 -155.45114671 430.5994345 -158 427 C-158.721875 425.96875 -159.44375 424.9375 -160.1875 423.875 C-172.57404902 410.01005642 -191.31733884 403.00533821 -209.49072266 401.84033203 C-233.97613182 400.741657 -254.82552085 405.95761128 -273.578125 422.23828125 C-294.39996616 441.7507735 -302.12357321 470.67562248 -303.12109375 498.36083984 C-303.5284098 513.45800913 -303.43390428 528.24029528 -300 543 C-299.83371094 543.7204248 -299.66742188 544.44084961 -299.49609375 545.18310547 C-294.24830132 566.956585 -282.72369722 588.13298556 -263.6875 600.75 C-241.08990347 614.1821378 -216.28891788 617.72163719 -190.5703125 611.9765625 C-171.16051433 606.66753674 -153.99361948 597.45378762 -143 580 C-137.19482431 569.76909631 -135.05355271 559.6035003 -132 548 C-156.75 548 -181.5 548 -207 548 C-207 530.51 -207 513.02 -207 495 C-161.79 495 -116.58 495 -70 495 C-70 549.78 -70 604.56 -70 661 C-84.85 661 -99.7 661 -115 661 C-119.56906077 642.72375691 -119.56906077 642.72375691 -120.75 636.8125 C-120.99234375 635.62269531 -121.2346875 634.43289063 -121.484375 633.20703125 C-121.93679871 630.39309286 -122.10698563 627.84046846 -122 625 C-122.66 625 -123.32 625 -124 625 C-124.27368408 625.59603027 -124.54736816 626.19206055 -124.8293457 626.80615234 C-134.69224061 645.28956708 -159.43781094 656.74622746 -178.3671875 662.7578125 C-218.21636243 674.68024724 -262.12576618 670.30299099 -298.77368164 650.59448242 C-310.76152958 643.92230045 -321.28534476 635.65823257 -331 626 C-331.47034668 625.53368164 -331.94069336 625.06736328 -332.42529297 624.58691406 C-340.14332695 616.82358958 -346.31162313 608.33464823 -352 599 C-352.35690918 598.42475586 -352.71381836 597.84951172 -353.08154297 597.25683594 C-376.22499925 559.36200804 -378.66993361 505.5613265 -368.67578125 463.14453125 C-367.30186667 457.70283333 -365.71931956 452.341866 -364 447 C-363.76410156 446.26458984 -363.52820313 445.52917969 -363.28515625 444.77148438 C-351.78045271 409.83488464 -327.04907674 380.45672803 -294.1875 363.8125 C-280.35473691 357.04424803 -263.65181577 349 -248 349 C-248.09344619 342.58089829 -248.20087841 336.1621324 -248.31738281 329.7434082 C-248.35532531 327.56637688 -248.39023399 325.38929023 -248.421875 323.2121582 C-249.09714831 277.30412396 -265.16642886 235.77857272 -297.25 202.3125 C-310.4230947 189.63824619 -326.17847786 180.94174484 -342 172 C-341.50661133 172.35626465 -341.01322266 172.7125293 -340.50488281 173.07958984 C-335.62939802 176.65904501 -331.1346928 180.4634169 -326.75 184.625 C-326.10450195 185.23472656 -325.45900391 185.84445312 -324.79394531 186.47265625 C-322.85703494 188.30933223 -320.92793524 190.15391106 -319 192 C-318.17048828 192.78648926 -318.17048828 192.78648926 -317.32421875 193.58886719 C-301.62604118 208.5177172 -287.49790654 227.0372322 -277 246 C-277 246.66 -277 247.32 -277 248 C-307.71785014 253.03901741 -339.727242 244.76370084 -365.125 227.19921875 C-370.4195235 223.14919602 -375.20309237 218.61899094 -380 214 C-380.70769531 213.36707031 -381.41539062 212.73414063 -382.14453125 212.08203125 C-410.98845277 185.47042952 -423.10703073 138.03296539 -430 101 C-430 100.01 -430 99.02 -430 98 C-380.84846724 97.25752972 -333.35955809 106.98050212 -296.76074219 141.90673828 C-275.07887593 163.08342983 -262.01464585 191.72506526 -260.6875 222.125 C-260.69136719 222.91132813 -260.69523438 223.69765625 -260.69921875 224.5078125 C-259.77472592 227.80293221 -257.92106509 229.51163117 -255.64624023 232.01464844 C-252.73594279 235.52444212 -250.76546849 239.52394444 -248.6875 243.5625 C-248.24599609 244.38685547 -247.80449219 245.21121094 -247.34960938 246.06054688 C-245.09785076 250.37440602 -243.4233328 254.07176722 -243 259 C-242.34 259 -241.68 259 -241 259 C-240.938125 257.845 -240.87625 256.69 -240.8125 255.5 C-238.7041873 237.84963855 -230.02577158 217.76301566 -221.94291687 201.929245 C-219.01191325 196.02971747 -218.49594854 191.2944333 -218.71484375 184.76171875 C-218.72761856 183.80086868 -218.74039337 182.84001862 -218.7535553 181.85005188 C-218.7954543 178.79516496 -218.86363178 175.7417691 -218.9375 172.6875 C-219.97077412 127.52648396 -207.17728466 86.96506522 -175.70703125 53.7734375 C-146.79520826 24.15237787 -108.01066475 9.94023853 -68 3 C-67.0934668 2.83338867 -66.18693359 2.66677734 -65.25292969 2.49511719 C-43.75221731 -1.35254642 -21.74889878 -0.28303759 0 0 Z " fill="#228A45" transform="translate(729,174)"/>
<path d="M0 0 C0.33 0 0.66 0 1 0 C1.495 3.96 1.495 3.96 2 8 C-21.43 8 -44.86 8 -69 8 C-68.67 7.01 -68.34 6.02 -68 5 C-68 5.66 -68 6.32 -68 7 C-45.89 7 -23.78 7 -1 7 C-0.67 4.69 -0.34 2.38 0 0 Z " fill="#2D8E4D" transform="translate(653,616)"/>
<path d="M0 0 C0.66 0.33 1.32 0.66 2 1 C-2.95 5.95 -7.9 10.9 -13 16 C-15 13 -15 13 -15 11 C-13.62304688 9.76318359 -13.62304688 9.76318359 -11.71875 8.3984375 C-11.04199219 7.90859375 -10.36523438 7.41875 -9.66796875 6.9140625 C-8.59482422 6.15222656 -8.59482422 6.15222656 -7.5 5.375 C-6.42685547 4.6015625 -6.42685547 4.6015625 -5.33203125 3.8125 C-3.55879571 2.53577041 -1.78140052 1.26529973 0 0 Z " fill="#EEF5EF" transform="translate(628,248)"/>
<path d="M0 0 C3.79049707 1.42749981 7.27122456 3.16236542 10.8125 5.125 C12.27623047 5.93324219 12.27623047 5.93324219 13.76953125 6.7578125 C14.50558594 7.16773438 15.24164063 7.57765625 16 8 C15.34 9.32 14.68 10.64 14 12 C13.49210937 11.54109375 12.98421875 11.0821875 12.4609375 10.609375 C9.25361948 7.75041736 6.11514846 4.96014375 2.5 2.625 C1.675 2.08875 0.85 1.5525 0 1 C0 0.67 0 0.34 0 0 Z " fill="#DAECE0" transform="translate(385,345)"/>
<path d="M0 0 C0.66 0.33 1.32 0.66 2 1 C-0.64 3.64 -3.28 6.28 -6 9 C-6.66 8.67 -7.32 8.34 -8 8 C-6.88333826 4.65001479 -6.25305075 4.20659778 -3.4375 2.3125 C-2.79683594 1.87550781 -2.15617188 1.43851563 -1.49609375 0.98828125 C-1.00238281 0.66214844 -0.50867188 0.33601562 0 0 Z " fill="#D5E9DC" transform="translate(628,248)"/>
<path d="M0 0 C0 3.34238213 -0.48151073 5.03533048 -2 8 C-4.625 10.3125 -4.625 10.3125 -7 12 C-5.44298069 7.32894208 -2.91552627 3.91294315 0 0 Z " fill="#137A2B" transform="translate(386,580)"/>
<path d="M0 0 C1.22589844 0.01353516 1.22589844 0.01353516 2.4765625 0.02734375 C3.41628906 0.04474609 3.41628906 0.04474609 4.375 0.0625 C3.385 1.5475 3.385 1.5475 2.375 3.0625 C0.4296875 3.35546875 0.4296875 3.35546875 -1.75 3.25 C-3.02875 3.188125 -4.3075 3.12625 -5.625 3.0625 C-5.955 2.4025 -6.285 1.7425 -6.625 1.0625 C-4.21954362 -0.14022819 -2.67503047 -0.03821472 0 0 Z " fill="#2C8D4C" transform="translate(563.625,381.9375)"/>
<path d="M0 0 C0.99 0.33 1.98 0.66 3 1 C3.1875 3.8125 3.1875 3.8125 3 7 C2.01 7.99 1.02 8.98 0 10 C0 6.7 0 3.4 0 0 Z " fill="#2F9150" transform="translate(498,459)"/>
<path d="M0 0 C2.97 0 5.94 0 9 0 C8.67 0.99 8.34 1.98 8 3 C5.69 3 3.38 3 1 3 C0.67 2.01 0.34 1.02 0 0 Z " fill="#2E8F4E" transform="translate(541,382)"/>
</svg>
